<svg id="Layer_1" data-name="Layer 1" xmlns="http://www.w3.org/2000/svg" viewBox="0 0 880.62 156.87"><defs><style>.cls-1{fill:none;stroke:#000;stroke-linecap:round;stroke-miterlimit:10;stroke-width:10px;}.cls-2{opacity:0.2;}.cls-3{fill:#fbffff;}</style></defs><title>wordmark</title><path d="M192.07,75.93V195.64h-8.71V138.28h-75v57.36H99.69V80.29a4.36,4.36,0,0,1,4.36-4.36h0a4.36,4.36,0,0,1,4.35,4.36v51.48h75V75.93Z" transform="translate(-99.69 -72.6)"/><path d="M254.26,110.11a40.49,40.49,0,0,1,16.2,3.09A33.14,33.14,0,0,1,282.51,122,38.85,38.85,0,0,1,290,135.62a63.18,63.18,0,0,1,0,35.74A38.8,38.8,0,0,1,282.51,185a32.61,32.61,0,0,1-12.05,8.72,44.68,44.68,0,0,1-32.4,0A33,33,0,0,1,226,185a38.4,38.4,0,0,1-7.53-13.62,63.18,63.18,0,0,1,0-35.74A38.45,38.45,0,0,1,226,122a33.49,33.49,0,0,1,12.1-8.75A40.42,40.42,0,0,1,254.26,110.11Zm0,80.29a31.26,31.26,0,0,0,13.15-2.58,24.88,24.88,0,0,0,9.39-7.41,32.59,32.59,0,0,0,5.63-11.63,63.45,63.45,0,0,0,0-30.5,33,33,0,0,0-5.63-11.71,25.08,25.08,0,0,0-9.39-7.49,34.22,34.22,0,0,0-26.31,0,25.08,25.08,0,0,0-9.39,7.49A33.55,33.55,0,0,0,226,138.28a62.15,62.15,0,0,0,0,30.5,33.15,33.15,0,0,0,5.67,11.63,24.88,24.88,0,0,0,9.39,7.41A31.31,31.31,0,0,0,254.26,190.4Z" transform="translate(-99.69 -72.6)"/><path d="M315.34,195.64V116a4.49,4.49,0,0,1,4.48-4.49h0a2.26,2.26,0,0,1,2.46,2.12l.76,12.18a44,44,0,0,1,11.25-11.34,24.9,24.9,0,0,1,14.3-4.31q9.23,0,14.76,5.33t7.49,14.81a29.36,29.36,0,0,1,4.27-9,26.76,26.76,0,0,1,6.3-6.31,25.47,25.47,0,0,1,7.75-3.68,31.73,31.73,0,0,1,8.58-1.18A29.07,29.07,0,0,1,409,112.18a22.16,22.16,0,0,1,8.46,6.14,27.93,27.93,0,0,1,5.33,10,45.17,45.17,0,0,1,1.87,13.54v53.8h-8v-53.8q0-12.36-5.33-18.83t-15.23-6.47a22.52,22.52,0,0,0-8.42,1.61,20.2,20.2,0,0,0-7.1,4.78,22.85,22.85,0,0,0-4.91,7.91,30.63,30.63,0,0,0-1.82,11v53.8h-8.12v-53.8q0-12.27-4.87-18.79t-14.25-6.51a21.74,21.74,0,0,0-12.69,4.06,38.89,38.89,0,0,0-10.41,11.25v63.79Z" transform="translate(-99.69 -72.6)"/><path d="M454.42,150.21v1.61a57.36,57.36,0,0,0,2.2,16.67,34.3,34.3,0,0,0,6.26,12,25.8,25.8,0,0,0,9.82,7.32,32.37,32.37,0,0,0,12.86,2.45,38.57,38.57,0,0,0,11-1.39,41.22,41.22,0,0,0,7.82-3.13,44,44,0,0,0,5-3.13,5.73,5.73,0,0,1,2.7-1.4,1.94,1.94,0,0,1,1.7.85l2.2,2.7a22.77,22.77,0,0,1-5.38,4.74,38.7,38.7,0,0,1-7.44,3.77,54.7,54.7,0,0,1-8.8,2.49,48.47,48.47,0,0,1-9.43.93,40.07,40.07,0,0,1-15.74-3A33.22,33.22,0,0,1,457.05,185a39.71,39.71,0,0,1-7.83-14.08,61,61,0,0,1-2.75-19.08,52,52,0,0,1,2.58-16.71,38.26,38.26,0,0,1,7.45-13.2,34,34,0,0,1,11.93-8.67,39.09,39.09,0,0,1,16-3.13,35.1,35.1,0,0,1,13.2,2.45,30,30,0,0,1,10.57,7.15,33.78,33.78,0,0,1,7.07,11.55A44.48,44.48,0,0,1,517.88,147a4.44,4.44,0,0,1-.51,2.53,2,2,0,0,1-1.69.68Zm56.18-5.16a36.18,36.18,0,0,0-1.9-12.14,25.66,25.66,0,0,0-5.38-9.09,23.42,23.42,0,0,0-8.24-5.72,27.29,27.29,0,0,0-10.54-2,31.53,31.53,0,0,0-11.67,2,25.61,25.61,0,0,0-8.93,5.83,29.38,29.38,0,0,0-6.05,9.14,42.42,42.42,0,0,0-3,11.93Z" transform="translate(-99.69 -72.6)"/><path d="M736.57,111.46v79.7a4.47,4.47,0,0,1-4.48,4.48h0a2.27,2.27,0,0,1-2.45-2.2l-.76-12.52a47.75,47.75,0,0,1-13.5,11.68,33.63,33.63,0,0,1-17,4.4,31.61,31.61,0,0,1-12.26-2.2,22.54,22.54,0,0,1-8.72-6.35,28,28,0,0,1-5.24-10,45.09,45.09,0,0,1-1.78-13.2V111.46h8.12v53.81q0,11.85,5.42,18.57t16.49,6.73a29.92,29.92,0,0,0,15.36-4.19,43.29,43.29,0,0,0,12.73-11.63V111.46Z" transform="translate(-99.69 -72.6)"/><path d="M767.12,150.21v1.61a57,57,0,0,0,2.2,16.67,34,34,0,0,0,6.26,12,25.69,25.69,0,0,0,9.81,7.32,32.37,32.37,0,0,0,12.86,2.45,38.57,38.57,0,0,0,11-1.39,41.22,41.22,0,0,0,7.82-3.13,43.16,43.16,0,0,0,5-3.13,5.73,5.73,0,0,1,2.7-1.4,1.94,1.94,0,0,1,1.7.85l2.2,2.7a22.77,22.77,0,0,1-5.38,4.74,38.41,38.41,0,0,1-7.44,3.77,54.7,54.7,0,0,1-8.8,2.49,48.39,48.39,0,0,1-9.43.93,40.07,40.07,0,0,1-15.74-3A33.22,33.22,0,0,1,769.74,185a39.86,39.86,0,0,1-7.83-14.08,61,61,0,0,1-2.75-19.08,52,52,0,0,1,2.58-16.71,38.26,38.26,0,0,1,7.45-13.2,34,34,0,0,1,11.93-8.67,39.12,39.12,0,0,1,16-3.13,35.1,35.1,0,0,1,13.2,2.45,30,30,0,0,1,10.57,7.15A33.63,33.63,0,0,1,828,131.26,44.48,44.48,0,0,1,830.57,147a4.44,4.44,0,0,1-.51,2.53,2,2,0,0,1-1.69.68Zm56.17-5.16a36.18,36.18,0,0,0-1.9-12.14,25.79,25.79,0,0,0-5.37-9.09,23.55,23.55,0,0,0-8.25-5.72,27.29,27.29,0,0,0-10.54-2,31.53,31.53,0,0,0-11.67,2,25.61,25.61,0,0,0-8.93,5.83,29.38,29.38,0,0,0-6,9.14,42.77,42.77,0,0,0-3,11.93Z" transform="translate(-99.69 -72.6)"/><path d="M860.18,131.77a52.25,52.25,0,0,1,4.44-9.18,29,29,0,0,1,5.75-6.81,23.54,23.54,0,0,1,7.28-4.27,25.56,25.56,0,0,1,8.92-1.48,28.54,28.54,0,0,1,5.16.46,13.06,13.06,0,0,1,4.49,1.65l-.68,5.58a1.63,1.63,0,0,1-1.61,1.36,12.74,12.74,0,0,1-3.08-.59,20.3,20.3,0,0,0-5.46-.6,23.72,23.72,0,0,0-8.67,1.48,20,20,0,0,0-6.77,4.45,28.6,28.6,0,0,0-5.25,7.31,69.75,69.75,0,0,0-4.1,10v54.48h-8.12V115.78a4.32,4.32,0,0,1,4.31-4.32h0a2.78,2.78,0,0,1,2,.6,3.4,3.4,0,0,1,.77,2Z" transform="translate(-99.69 -72.6)"/><path d="M980.31,111.46,931.92,222.72a5.86,5.86,0,0,1-1.31,1.94,3.25,3.25,0,0,1-2.33.76h0a3.71,3.71,0,0,1-3.39-5.24l12.44-27.67-35.61-81h6.68a3.08,3.08,0,0,1,2,.64,3,3,0,0,1,1,1.39L939.79,179a25.27,25.27,0,0,1,.88,2.58c.26.87.5,1.76.72,2.66.29-.9.58-1.79.89-2.66s.64-1.74,1-2.58l28-65.49a3.57,3.57,0,0,1,1.49-1.67,2.69,2.69,0,0,1,1.38-.36Z" transform="translate(-99.69 -72.6)"/><path d="M592.34,132.44a3.66,3.66,0,1,1-3.66,3.65,3.66,3.66,0,0,1,3.66-3.65m0-2a5.66,5.66,0,1,0,5.66,5.65,5.66,5.66,0,0,0-5.66-5.65Z" transform="translate(-99.69 -72.6)"/><path d="M592.34,122.38a13.72,13.72,0,1,1-13.72,13.71,13.73,13.73,0,0,1,13.72-13.71m0-2a15.72,15.72,0,1,0,15.72,15.71,15.71,15.71,0,0,0-15.72-15.71Z" transform="translate(-99.69 -72.6)"/><path d="M583.36,120.23a18.15,18.15,0,0,0-6.76,6.66l-25.05-14.46A47.32,47.32,0,0,1,568.9,95.17Z" transform="translate(-99.69 -72.6)"/><path d="M633.23,159.59a47.44,47.44,0,0,1-17.16,17.27l-14.45-25.07a18.22,18.22,0,0,0,6.56-6.66Z" transform="translate(-99.69 -72.6)"/><line class="cls-1" x1="536.3" y1="107.86" x2="580.31" y2="151.87"/><g class="cls-2"><circle class="cls-3" cx="492.02" cy="64.13" r="64.13"/></g><path d="M591.71,79.6a57.13,57.13,0,1,1-57.12,57.12A57.19,57.19,0,0,1,591.71,79.6m0-7a64.13,64.13,0,1,0,64.13,64.12A64.12,64.12,0,0,0,591.71,72.6Z" transform="translate(-99.69 -72.6)"/></svg>